<svg aria-label="模型搭建画布" class=""><defs><pattern id="draft-grid" width="15.955284552845528" height="15.955284552845528" patternUnits="userSpaceOnUse" x="0.6402439024390247" y="172.01829268292684"><circle cx="1" cy="1" r=".8" fill="#cedbd2"></circle></pattern><marker id="draft-arrow" viewBox="0 0 10 10" refX="9" refY="5" markerWidth="6" markerHeight="6" orient="auto-start-reverse"><path d="M 0 0 L 10 5 L 0 10 z" fill="#628572"></path></marker></defs><rect width="100%" height="100%" fill="url(#draft-grid)"></rect><g transform="translate(0.6402439024390247 172.01829268292684) scale(0.7977642276422764)"><g data-draft-edge="e_12a62c68c0ce4eb0a4120ac42bcc4762" class="draft-edge"><path d="M 226 136 H 262 V 136 H 298" fill="none" stroke="transparent" stroke-width="14"></path><path d="M 226 136 H 262 V 136 H 298" fill="none" stroke-width="1.8" marker-end="url(#draft-arrow)"></path></g><g data-draft-edge="e_1b132c70195c44a690b1c90d1e3f7b69" class="draft-edge"><path d="M 474 136 H 510 V 136 H 546" fill="none" stroke="transparent" stroke-width="14"></path><path d="M 474 136 H 510 V 136 H 546" fill="none" stroke-width="1.8" marker-end="url(#draft-arrow)"></path></g><g data-draft-edge="e_7650c727a6914a6db6b47f883faf7e9d" class="draft-edge"><path d="M 722 136 H 758 V 136 H 794" fill="none" stroke="transparent" stroke-width="14"></path><path d="M 722 136 H 758 V 136 H 794" fill="none" stroke-width="1.8" marker-end="url(#draft-arrow)"></path></g><g data-draft-node="n_0c98317102af419982ef14c06189c5d6" transform="translate(50 70)" class="draft-node  "><rect width="176" height="100" rx="9"></rect><rect class="draft-node-cap" x="1" y="1" width="174" height="36" rx="8"></rect><text x="13" y="23" class="draft-node-title">输入</text><text x="13" y="92" class="draft-node-kind">Input</text><g data-node="n_0c98317102af419982ef14c06189c5d6" data-draft-port="output" class="draft-port out " role="button" aria-label="输入 output 输出端口"><circle cx="176" cy="66" r="11" fill="transparent" stroke="none"></circle><circle cx="176" cy="66" r="5"></circle><text x="164" y="69" text-anchor="end">output</text></g></g><g data-draft-node="n_e197374c9d264b64b4fab3b648a740c2" transform="translate(298 70)" class="draft-node selected "><rect width="176" height="100" rx="9"></rect><rect class="draft-node-cap" x="1" y="1" width="174" height="36" rx="8"></rect><text x="13" y="23" class="draft-node-title">全连接</text><text x="13" y="92" class="draft-node-kind">Linear</text><g data-node="n_e197374c9d264b64b4fab3b648a740c2" data-draft-port="input" class="draft-port in " role="button" aria-label="全连接 input 输入端口"><circle cx="0" cy="66" r="11" fill="transparent" stroke="none"></circle><circle cx="0" cy="66" r="5"></circle><text x="12" y="69" text-anchor="start">input</text></g><g data-node="n_e197374c9d264b64b4fab3b648a740c2" data-draft-port="output" class="draft-port out " role="button" aria-label="全连接 output 输出端口"><circle cx="176" cy="66" r="11" fill="transparent" stroke="none"></circle><circle cx="176" cy="66" r="5"></circle><text x="164" y="69" text-anchor="end">output</text></g></g><g data-draft-node="n_82f7ecface3f438b84749ea713d79ca5" transform="translate(546 70)" class="draft-node  "><rect width="176" height="100" rx="9"></rect><rect class="draft-node-cap" x="1" y="1" width="174" height="36" rx="8"></rect><text x="13" y="23" class="draft-node-title">ReLU 激活</text><text x="13" y="92" class="draft-node-kind">ReLU</text><g data-node="n_82f7ecface3f438b84749ea713d79ca5" data-draft-port="input" class="draft-port in " role="button" aria-label="ReLU 激活 input 输入端口"><circle cx="0" cy="66" r="11" fill="transparent" stroke="none"></circle><circle cx="0" cy="66" r="5"></circle><text x="12" y="69" text-anchor="start">input</text></g><g data-node="n_82f7ecface3f438b84749ea713d79ca5" data-draft-port="output" class="draft-port out " role="button" aria-label="ReLU 激活 output 输出端口"><circle cx="176" cy="66" r="11" fill="transparent" stroke="none"></circle><circle cx="176" cy="66" r="5"></circle><text x="164" y="69" text-anchor="end">output</text></g></g><g data-draft-node="n_83f8247d11544f3fa844c1120a02014d" transform="translate(794 70)" class="draft-node  "><rect width="176" height="100" rx="9"></rect><rect class="draft-node-cap" x="1" y="1" width="174" height="36" rx="8"></rect><text x="13" y="23" class="draft-node-title">输出</text><text x="13" y="92" class="draft-node-kind">Output</text><g data-node="n_83f8247d11544f3fa844c1120a02014d" data-draft-port="input" class="draft-port in " role="button" aria-label="输出 input 输入端口"><circle cx="0" cy="66" r="11" fill="transparent" stroke="none"></circle><circle cx="0" cy="66" r="5"></circle><text x="12" y="69" text-anchor="start">input</text></g></g></g></svg>