<svg xmlns="http://www.w3.org/2000/svg" width="815" height="535.5" viewBox="0 0 815 535.5"><defs><marker id="arrow" viewBox="0 0 10 10" refX="9" refY="5" markerWidth="6" markerHeight="6" orient="auto"><path d="M0 0 L10 5 L0 10Z" fill="#628572"/></marker></defs><rect width="815" height="535.5" fill="#f7faf7"/><g transform="translate(371.683574879227 28.02415458937201) scale(0.40700483091787437)"><polyline points="176,66 182,66 182,100 -6,100 -6,220 0,220" fill="none" stroke="#628572" stroke-width="1.8" marker-end="url(#arrow)"/><polyline points="176,220 182,220 182,254 -6,254 -6,374 0,374" fill="none" stroke="#628572" stroke-width="1.8" marker-end="url(#arrow)"/><polyline points="176,374 182,374 182,408 -6,408 -6,528 0,528" fill="none" stroke="#628572" stroke-width="1.8" marker-end="url(#arrow)"/><polyline points="176,528 182,528 182,562 -6,562 -6,682 0,682" fill="none" stroke="#628572" stroke-width="1.8" marker-end="url(#arrow)"/><polyline points="176,682 182,682 182,716 -6,716 -6,836 0,836" fill="none" stroke="#628572" stroke-width="1.8" marker-end="url(#arrow)"/><polyline points="176,836 182,836 182,870 -6,870 -6,990 0,990" fill="none" stroke="#628572" stroke-width="1.8" marker-end="url(#arrow)"/><polyline points="176,990 182,990 182,1024 -6,1024 -6,1144 0,1144" fill="none" stroke="#628572" stroke-width="1.8" marker-end="url(#arrow)"/><g transform="translate(0 0)"><rect width="176" height="100" rx="9" fill="#fff" stroke="#b9d0bf" stroke-width="1.3"/><rect x="1" y="1" width="174" height="36" rx="8" fill="#edf4eb"/><text x="13" y="23" fill="#355247" font-family="sans-serif" font-size="13">图像输入</text><text x="13" y="92" fill="#819487" font-family="monospace" font-size="10">Input</text><circle cx="176" cy="66" r="5" fill="#729b82" stroke="#729b82" stroke-width="1.5"/><text x="164" y="69" text-anchor="end" font-family="sans-serif" font-size="9" fill="#718578">output</text></g><g transform="translate(0 154)"><rect width="176" height="100" rx="9" fill="#fff" stroke="#b9d0bf" stroke-width="1.3"/><rect x="1" y="1" width="174" height="36" rx="8" fill="#edf4eb"/><text x="13" y="23" fill="#355247" font-family="sans-serif" font-size="13">卷积 3 → 8</text><text x="13" y="92" fill="#819487" font-family="monospace" font-size="10">Conv2d</text><circle cx="0" cy="66" r="5" fill="#eef5ed" stroke="#729b82" stroke-width="1.5"/><text x="12" y="69" font-family="sans-serif" font-size="9" fill="#718578">input</text><circle cx="176" cy="66" r="5" fill="#729b82" stroke="#729b82" stroke-width="1.5"/><text x="164" y="69" text-anchor="end" font-family="sans-serif" font-size="9" fill="#718578">output</text></g><g transform="translate(0 308)"><rect width="176" height="100" rx="9" fill="#fff" stroke="#b9d0bf" stroke-width="1.3"/><rect x="1" y="1" width="174" height="36" rx="8" fill="#edf4eb"/><text x="13" y="23" fill="#355247" font-family="sans-serif" font-size="13">ReLU 激活</text><text x="13" y="92" fill="#819487" font-family="monospace" font-size="10">ReLU</text><circle cx="0" cy="66" r="5" fill="#eef5ed" stroke="#729b82" stroke-width="1.5"/><text x="12" y="69" font-family="sans-serif" font-size="9" fill="#718578">input</text><circle cx="176" cy="66" r="5" fill="#729b82" stroke="#729b82" stroke-width="1.5"/><text x="164" y="69" text-anchor="end" font-family="sans-serif" font-size="9" fill="#718578">output</text></g><g transform="translate(0 462)"><rect width="176" height="100" rx="9" fill="#fff" stroke="#b9d0bf" stroke-width="1.3"/><rect x="1" y="1" width="174" height="36" rx="8" fill="#edf4eb"/><text x="13" y="23" fill="#355247" font-family="sans-serif" font-size="13">最大池化 2 × 2</text><text x="13" y="92" fill="#819487" font-family="monospace" font-size="10">MaxPool2d</text><circle cx="0" cy="66" r="5" fill="#eef5ed" stroke="#729b82" stroke-width="1.5"/><text x="12" y="69" font-family="sans-serif" font-size="9" fill="#718578">input</text><circle cx="176" cy="66" r="5" fill="#729b82" stroke="#729b82" stroke-width="1.5"/><text x="164" y="69" text-anchor="end" font-family="sans-serif" font-size="9" fill="#718578">output</text></g><g transform="translate(0 616)"><rect width="176" height="100" rx="9" fill="#fff" stroke="#b9d0bf" stroke-width="1.3"/><rect x="1" y="1" width="174" height="36" rx="8" fill="#edf4eb"/><text x="13" y="23" fill="#355247" font-family="sans-serif" font-size="13">平均池化 1 × 1</text><text x="13" y="92" fill="#819487" font-family="monospace" font-size="10">AdaptiveAvgPool2d</text><circle cx="0" cy="66" r="5" fill="#eef5ed" stroke="#729b82" stroke-width="1.5"/><text x="12" y="69" font-family="sans-serif" font-size="9" fill="#718578">input</text><circle cx="176" cy="66" r="5" fill="#729b82" stroke="#729b82" stroke-width="1.5"/><text x="164" y="69" text-anchor="end" font-family="sans-serif" font-size="9" fill="#718578">output</text></g><g transform="translate(0 770)"><rect width="176" height="100" rx="9" fill="#fff" stroke="#b9d0bf" stroke-width="1.3"/><rect x="1" y="1" width="174" height="36" rx="8" fill="#edf4eb"/><text x="13" y="23" fill="#355247" font-family="sans-serif" font-size="13">展平</text><text x="13" y="92" fill="#819487" font-family="monospace" font-size="10">Flatten</text><circle cx="0" cy="66" r="5" fill="#eef5ed" stroke="#729b82" stroke-width="1.5"/><text x="12" y="69" font-family="sans-serif" font-size="9" fill="#718578">input</text><circle cx="176" cy="66" r="5" fill="#729b82" stroke="#729b82" stroke-width="1.5"/><text x="164" y="69" text-anchor="end" font-family="sans-serif" font-size="9" fill="#718578">output</text></g><g transform="translate(0 924)"><rect width="176" height="100" rx="9" fill="#fff" stroke="#b9d0bf" stroke-width="1.3"/><rect x="1" y="1" width="174" height="36" rx="8" fill="#edf4eb"/><text x="13" y="23" fill="#355247" font-family="sans-serif" font-size="13">分类头 8 → 4</text><text x="13" y="92" fill="#819487" font-family="monospace" font-size="10">Linear</text><circle cx="0" cy="66" r="5" fill="#eef5ed" stroke="#729b82" stroke-width="1.5"/><text x="12" y="69" font-family="sans-serif" font-size="9" fill="#718578">input</text><circle cx="176" cy="66" r="5" fill="#729b82" stroke="#729b82" stroke-width="1.5"/><text x="164" y="69" text-anchor="end" font-family="sans-serif" font-size="9" fill="#718578">output</text></g><g transform="translate(0 1078)"><rect width="176" height="100" rx="9" fill="#fff" stroke="#b9d0bf" stroke-width="1.3"/><rect x="1" y="1" width="174" height="36" rx="8" fill="#edf4eb"/><text x="13" y="23" fill="#355247" font-family="sans-serif" font-size="13">输出</text><text x="13" y="92" fill="#819487" font-family="monospace" font-size="10">Output</text><circle cx="0" cy="66" r="5" fill="#eef5ed" stroke="#729b82" stroke-width="1.5"/><text x="12" y="69" font-family="sans-serif" font-size="9" fill="#718578">input</text></g></g></svg>