<svg xmlns="http://www.w3.org/2000/svg" width="180mm" height="208.45mm" viewBox="0 0 696 806" data-document-id="canvas-architecture-model.Transformer-01ac6cd61f05-28884a30" data-revision="1" role="img" aria-label="Transformer"><metadata>{&quot;renderer&quot;:&quot;archcanvas-svg/1.0&quot;,&quot;documentId&quot;:&quot;canvas-architecture-model.Transformer-01ac6cd61f05-28884a30&quot;,&quot;revision&quot;:1,&quot;sourceDigest&quot;:&quot;01ac6cd61f058e9de5230b0c371527a1fa2b4f73842019e0e5785d5f0deb0916&quot;,&quot;irDigest&quot;:&quot;28884a3039bd6aa11df2f4b33503110c1acffbff1d1cd3d4d776330c88830fae&quot;,&quot;widthMm&quot;:180,&quot;heightMm&quot;:208.44827586206895}</metadata><defs><marker id="archcanvas-arrow-0" viewBox="0 0 10 10" refX="8.5" refY="5" markerWidth="5.5" markerHeight="5.5" orient="auto-start-reverse"><path d="M 1 1 L 9 5 L 1 9 Z" fill="#718495"/></marker><marker id="archcanvas-arrow-1" viewBox="0 0 10 10" refX="8.5" refY="5" markerWidth="5.5" markerHeight="5.5" orient="auto-start-reverse"><path d="M 1 1 L 9 5 L 1 9 Z" fill="#a194a8"/></marker><marker id="archcanvas-arrow-2" viewBox="0 0 10 10" refX="8.5" refY="5" markerWidth="5.5" markerHeight="5.5" orient="auto-start-reverse"><path d="M 1 1 L 9 5 L 1 9 Z" fill="#b69967"/></marker><marker id="archcanvas-arrow-3" viewBox="0 0 10 10" refX="8.5" refY="5" markerWidth="5.5" markerHeight="5.5" orient="auto-start-reverse"><path d="M 1 1 L 9 5 L 1 9 Z" fill="#8e91c3"/></marker></defs><rect x="0" y="0" width="696" height="806" fill="#ffffff"/><g font-family="Noto Sans CJK SC, Inter, Noto Sans, Arial, sans-serif"><text x="50" y="40" fill="#24384b" font-size="19" font-weight="600">Transformer</text><text x="50" y="62" fill="#768697" font-size="10" letter-spacing="1.4">MODEL ARCHITECTURE · SOURCE-BOUND VIEW</text><g data-node-id="call:instance:model.Transformer" data-canonical-id="call:instance:model.Transformer" aria-label="Transformer"><title>Transformer · Module · source</title><rect x="50" y="92" width="534" height="610" rx="12" fill="#f5f8fc" stroke="#94a6ba" stroke-width="1.3"/><path d="M 51 134 H 583" stroke="#94a6ba" opacity=".28"/><g transform="translate(73 115)" fill="none" stroke="#94a6ba" stroke-width="1.4" stroke-linecap="round"><rect x="-7" y="-7" width="14" height="14" rx="3"/><path d="M-3-7V7M3-7V7" opacity=".45"/></g><text x="93" y="119" fill="#24384b" font-size="13" font-weight="600"><tspan x="93" dy="0">Transformer</tspan></text></g><g fill="none" stroke-linejoin="round" stroke-linecap="round"><g data-edge-id="edge:5" data-tensor-id="tensor:input:model.Transformer:source_tokens:source_tokens"><title>edge:5 · data · tensor:input:model.Transformer:source_tokens:source_tokens</title><path d="M 177 272 V 291 H 177 V 310" stroke="#718495" stroke-width="1.5" marker-end="url(#archcanvas-arrow-0)"/></g><g data-edge-id="edge:6" data-tensor-id="tensor:call:instance:model.Transformer.source_embedding:output"><title>edge:6 · data · tensor:call:instance:model.Transformer.source_embedding:output</title><path d="M 144.7 372 V 391 H 128.5 V 410" stroke="#718495" stroke-width="1.5" marker-end="url(#archcanvas-arrow-0)"/></g><g data-edge-id="edge:7" data-tensor-id="tensor:input:model.Transformer:source_mask:source_mask"><title>edge:7 · mask · tensor:input:model.Transformer:source_mask:source_mask</title><path d="M 479 196 V 209 H 599 V 397 H 177 V 410" stroke="#a194a8" stroke-width="1.5" stroke-dasharray="5 4" marker-end="url(#archcanvas-arrow-1)"/></g><g data-edge-id="edge:13" data-tensor-id="tensor:call:instance:model.Transformer.source_embedding:output"><title>edge:13 · residual · tensor:call:instance:model.Transformer.source_embedding:output</title><path d="M 209.3 372 V 385 H 297 V 397 H 225.5 V 410" stroke="#b69967" stroke-width="1.5" marker-end="url(#archcanvas-arrow-2)"/></g><g data-edge-id="edge:42" data-tensor-id="tensor:input:model.Transformer:target_tokens:target_tokens"><title>edge:42 · data · tensor:input:model.Transformer:target_tokens:target_tokens</title><path d="M 413 272 V 291 H 413 V 310" stroke="#718495" stroke-width="1.5" marker-end="url(#archcanvas-arrow-0)"/></g><g data-edge-id="edge:43" data-tensor-id="tensor:call:instance:model.Transformer.target_embedding:output"><title>edge:43 · data · tensor:call:instance:model.Transformer.target_embedding:output</title><path d="M 380.7 372 V 391 H 348.3 V 410" stroke="#718495" stroke-width="1.5" marker-end="url(#archcanvas-arrow-0)"/></g><g data-edge-id="edge:44" data-tensor-id="tensor:call:instance:model.Transformer.encoder.1.feedforward_norm:output"><title>edge:44 · memory · tensor:call:instance:model.Transformer.encoder.1.feedforward_norm:output</title><path d="M 274 444.1 H 316" stroke="#8e91c3" stroke-width="1.5" marker-end="url(#archcanvas-arrow-3)"/><text x="277" y="436.1" font-size="9" fill="#8e91c3" stroke="none">memory</text></g><g data-edge-id="edge:45" data-tensor-id="tensor:input:model.Transformer:target_mask:target_mask"><title>edge:45 · mask · tensor:input:model.Transformer:target_mask:target_mask</title><path d="M 317 196 V 209 H 544 V 397 H 413 V 410" stroke="#a194a8" stroke-width="1.5" stroke-dasharray="5 4" marker-end="url(#archcanvas-arrow-1)"/></g><g data-edge-id="edge:46" data-tensor-id="tensor:input:model.Transformer:memory_mask:memory_mask"><title>edge:46 · mask · tensor:input:model.Transformer:memory_mask:memory_mask</title><path d="M 155 196 V 209 H 555 V 397 H 445.3 V 410" stroke="#a194a8" stroke-width="1.5" stroke-dasharray="5 4" marker-end="url(#archcanvas-arrow-1)"/></g><g data-edge-id="edge:51" data-tensor-id="tensor:call:instance:model.Transformer.target_embedding:output"><title>edge:51 · residual · tensor:call:instance:model.Transformer.target_embedding:output</title><path d="M 445.3 372 V 385 H 533 V 397 H 477.7 V 410" stroke="#b69967" stroke-width="1.5" marker-end="url(#archcanvas-arrow-2)"/></g><g data-edge-id="edge:69" data-tensor-id="tensor:call:instance:model.Transformer.decoder.feedforward_norm:output"><title>edge:69 · data · tensor:call:instance:model.Transformer.decoder.feedforward_norm:output</title><path d="M 413 472 V 491 H 413 V 510" stroke="#718495" stroke-width="1.5" marker-end="url(#archcanvas-arrow-0)"/></g><g data-edge-id="edge:70" data-tensor-id="tensor:call:instance:model.Transformer.output_projection:output"><title>edge:70 · data · tensor:call:instance:model.Transformer.output_projection:output</title><path d="M 413 572 V 591 H 413 V 610" stroke="#718495" stroke-width="1.5" marker-end="url(#archcanvas-arrow-0)"/></g></g><g data-node-id="input:model.Transformer:memory_mask" data-canonical-id="input:model.Transformer:memory_mask" aria-label="memory_mask"><title>memory_mask · Input · source</title><rect x="80" y="154" width="150" height="42" rx="9" fill="#eef2f5" stroke="#98a6b1" stroke-width="1.5"/><g transform="translate(105 175)" fill="none" stroke="#98a6b1" stroke-width="1.4" stroke-linecap="round"><rect x="-8" y="-6" width="16" height="12" rx="1"/><path d="M-3-6V6M3-6V6M-8 0H8" opacity=".6"/></g><text x="125" y="180" fill="#24384b" font-size="13" font-weight="600"><tspan x="125" dy="0">memory_mask</tspan></text></g><g data-node-id="input:model.Transformer:target_mask" data-canonical-id="input:model.Transformer:target_mask" aria-label="target_mask"><title>target_mask · Input · source</title><rect x="242" y="154" width="150" height="42" rx="9" fill="#eef2f5" stroke="#98a6b1" stroke-width="1.5"/><g transform="translate(267 175)" fill="none" stroke="#98a6b1" stroke-width="1.4" stroke-linecap="round"><rect x="-8" y="-6" width="16" height="12" rx="1"/><path d="M-3-6V6M3-6V6M-8 0H8" opacity=".6"/></g><text x="287" y="180" fill="#24384b" font-size="13" font-weight="600"><tspan x="287" dy="0">target_mask</tspan></text></g><g data-node-id="input:model.Transformer:source_mask" data-canonical-id="input:model.Transformer:source_mask" aria-label="source_mask"><title>source_mask · Input · source</title><rect x="404" y="154" width="150" height="42" rx="9" fill="#eef2f5" stroke="#98a6b1" stroke-width="1.5"/><g transform="translate(429 175)" fill="none" stroke="#98a6b1" stroke-width="1.4" stroke-linecap="round"><rect x="-8" y="-6" width="16" height="12" rx="1"/><path d="M-3-6V6M3-6V6M-8 0H8" opacity=".6"/></g><text x="449" y="180" fill="#24384b" font-size="13" font-weight="600"><tspan x="449" dy="0">source_mask</tspan></text></g><g data-node-id="input:model.Transformer:target_tokens" data-canonical-id="input:model.Transformer:target_tokens" aria-label="target_tokens"><title>target_tokens · Input · source</title><rect x="316" y="210" width="194" height="62" rx="9" fill="#eef2f5" stroke="#98a6b1" stroke-width="1.5"/><g transform="translate(341 241)" fill="none" stroke="#98a6b1" stroke-width="1.4" stroke-linecap="round"><rect x="-8" y="-6" width="16" height="12" rx="1"/><path d="M-3-6V6M3-6V6M-8 0H8" opacity=".6"/></g><text x="361" y="236" fill="#24384b" font-size="13" font-weight="600"><tspan x="361" dy="0">target_tokens</tspan></text><text x="361" y="253" fill="#768697" font-size="10">Input</text></g><g data-node-id="input:model.Transformer:source_tokens" data-canonical-id="input:model.Transformer:source_tokens" aria-label="source_tokens"><title>source_tokens · Input · source</title><rect x="80" y="210" width="194" height="62" rx="9" fill="#eef2f5" stroke="#98a6b1" stroke-width="1.5"/><g transform="translate(105 241)" fill="none" stroke="#98a6b1" stroke-width="1.4" stroke-linecap="round"><rect x="-8" y="-6" width="16" height="12" rx="1"/><path d="M-3-6V6M3-6V6M-8 0H8" opacity=".6"/></g><text x="125" y="236" fill="#24384b" font-size="13" font-weight="600"><tspan x="125" dy="0">source_tokens</tspan></text><text x="125" y="253" fill="#768697" font-size="10">Input</text></g><g data-node-id="call:instance:model.Transformer.source_embedding" data-canonical-id="call:instance:model.Transformer.source_embedding" aria-label="source embedding"><title>source embedding · Embedding · contract</title><rect x="80" y="310" width="194" height="62" rx="9" fill="#edf2fa" stroke="#7e95b5" stroke-width="1.5"/><g transform="translate(105 341)" fill="none" stroke="#7e95b5" stroke-width="1.4" stroke-linecap="round"><rect x="-7" y="-7" width="14" height="14" rx="3"/><path d="M-3-7V7M3-7V7" opacity=".45"/></g><text x="125" y="336" fill="#24384b" font-size="13" font-weight="600"><tspan x="125" dy="0">source embedding</tspan></text><text x="125" y="353" fill="#768697" font-size="10">Embedding</text></g><g data-node-id="repeat:instance:model.Transformer.encoder" data-canonical-id="repeat:instance:model.Transformer.encoder" aria-label="encoder"><title>encoder · Repeat · source</title><rect x="87" y="417" width="194" height="62" rx="9" fill="#f5f8fc" stroke="#94a6ba" opacity=".45"/><rect x="83.5" y="413.5" width="194" height="62" rx="9" fill="#f5f8fc" stroke="#94a6ba" opacity=".7"/><rect x="80" y="410" width="194" height="62" rx="9" fill="#f5f8fc" stroke="#94a6ba" stroke-width="1.5"/><g transform="translate(105 441)" fill="none" stroke="#94a6ba" stroke-width="1.4" stroke-linecap="round"><rect x="-7" y="-7" width="14" height="14" rx="3"/><path d="M-3-7V7M3-7V7" opacity=".45"/></g><text x="125" y="436" fill="#24384b" font-size="13" font-weight="600"><tspan x="125" dy="0">encoder</tspan></text><text x="125" y="453" fill="#768697" font-size="10">2 × independent layers</text></g><g data-node-id="call:instance:model.Transformer.target_embedding" data-canonical-id="call:instance:model.Transformer.target_embedding" aria-label="target embedding"><title>target embedding · Embedding · contract</title><rect x="316" y="310" width="194" height="62" rx="9" fill="#edf2fa" stroke="#7e95b5" stroke-width="1.5"/><g transform="translate(341 341)" fill="none" stroke="#7e95b5" stroke-width="1.4" stroke-linecap="round"><rect x="-7" y="-7" width="14" height="14" rx="3"/><path d="M-3-7V7M3-7V7" opacity=".45"/></g><text x="361" y="336" fill="#24384b" font-size="13" font-weight="600"><tspan x="361" dy="0">target embedding</tspan></text><text x="361" y="353" fill="#768697" font-size="10">Embedding</text></g><g data-node-id="call:instance:model.Transformer.decoder" data-canonical-id="call:instance:model.Transformer.decoder" aria-label="decoder"><title>decoder · Module · source</title><rect x="316" y="410" width="194" height="62" rx="9" fill="#f5f8fc" stroke="#94a6ba" stroke-width="1.5"/><g transform="translate(341 441)" fill="none" stroke="#94a6ba" stroke-width="1.4" stroke-linecap="round"><rect x="-7" y="-7" width="14" height="14" rx="3"/><path d="M-3-7V7M3-7V7" opacity=".45"/></g><text x="361" y="436" fill="#24384b" font-size="13" font-weight="600"><tspan x="361" dy="0">decoder</tspan></text><text x="361" y="453" fill="#768697" font-size="10">Module</text></g><g data-node-id="call:instance:model.Transformer.output_projection" data-canonical-id="call:instance:model.Transformer.output_projection" aria-label="output projection"><title>output projection · Linear · contract</title><rect x="316" y="510" width="194" height="62" rx="9" fill="#e5f1ed" stroke="#82a897" stroke-width="1.5"/><g transform="translate(341 541)" fill="none" stroke="#82a897" stroke-width="1.4" stroke-linecap="round"><rect x="-7" y="-7" width="14" height="14" rx="3"/><path d="M-3 0H3M0-3V3"/></g><text x="361" y="536" fill="#24384b" font-size="13" font-weight="600"><tspan x="361" dy="0">output projection</tspan></text><text x="361" y="553" fill="#768697" font-size="10">32 → 128</text></g><g data-node-id="output:model.Transformer:0" data-canonical-id="output:model.Transformer:0" aria-label="output"><title>output · Output · source</title><rect x="316" y="610" width="194" height="62" rx="9" fill="#eef2f5" stroke="#98a6b1" stroke-width="1.5"/><g transform="translate(341 641)" fill="none" stroke="#98a6b1" stroke-width="1.4" stroke-linecap="round"><rect x="-8" y="-6" width="16" height="12" rx="1"/><path d="M-3-6V6M3-6V6M-8 0H8" opacity=".6"/></g><text x="361" y="636" fill="#24384b" font-size="13" font-weight="600"><tspan x="361" dy="0">output</tspan></text><text x="361" y="653" fill="#768697" font-size="10">Output</text></g><circle data-port-id="input:model.Transformer:memory_mask:input:model.Transformer:memory_mask:out:memory_mask:mask" data-node-id="input:model.Transformer:memory_mask" cx="155" cy="196" r="2.6" fill="#98a6b1"><title>memory_mask</title></circle><circle data-port-id="input:model.Transformer:target_mask:input:model.Transformer:target_mask:out:target_mask:mask" data-node-id="input:model.Transformer:target_mask" cx="317" cy="196" r="2.6" fill="#98a6b1"><title>target_mask</title></circle><circle data-port-id="input:model.Transformer:source_mask:input:model.Transformer:source_mask:out:source_mask:mask" data-node-id="input:model.Transformer:source_mask" cx="479" cy="196" r="2.6" fill="#98a6b1"><title>source_mask</title></circle><circle data-port-id="input:model.Transformer:target_tokens:input:model.Transformer:target_tokens:out:target_tokens:data" data-node-id="input:model.Transformer:target_tokens" cx="413" cy="272" r="2.6" fill="#98a6b1"><title>target_tokens</title></circle><circle data-port-id="input:model.Transformer:source_tokens:input:model.Transformer:source_tokens:out:source_tokens:data" data-node-id="input:model.Transformer:source_tokens" cx="177" cy="272" r="2.6" fill="#98a6b1"><title>source_tokens</title></circle><circle data-port-id="call:instance:model.Transformer.source_embedding:call:instance:model.Transformer.source_embedding:in:input:data" data-node-id="call:instance:model.Transformer.source_embedding" cx="177" cy="310" r="2.6" fill="#7e95b5"><title>input</title></circle><circle data-port-id="call:instance:model.Transformer.source_embedding:call:instance:model.Transformer.source_embedding:out:output:data" data-node-id="call:instance:model.Transformer.source_embedding" cx="144.67" cy="372" r="2.6" fill="#7e95b5"><title>output</title></circle><circle data-port-id="call:instance:model.Transformer.source_embedding:call:instance:model.Transformer.source_embedding:out:output:residual" data-node-id="call:instance:model.Transformer.source_embedding" cx="209.33" cy="372" r="2.6" fill="#7e95b5"><title>output</title></circle><circle data-port-id="call:instance:model.Transformer.encoder.0:call:instance:model.Transformer.encoder.0:in:x:data" data-node-id="repeat:instance:model.Transformer.encoder" cx="128.5" cy="410" r="2.6" fill="#94a6ba"><title>x · projected boundary port</title></circle><circle data-port-id="call:instance:model.Transformer.encoder.0:call:instance:model.Transformer.encoder.0:in:mask:mask" data-node-id="repeat:instance:model.Transformer.encoder" cx="177" cy="410" r="2.6" fill="#94a6ba"><title>mask · projected boundary port</title></circle><circle data-port-id="op:call:instance:model.Transformer.encoder.0:Add:2fc8574cd9:op:call:instance:model.Transformer.encoder.0:Add:2fc8574cd9:in:left:residual" data-node-id="repeat:instance:model.Transformer.encoder" cx="225.5" cy="410" r="2.6" fill="#94a6ba"><title>left · projected boundary port</title></circle><circle data-port-id="call:instance:model.Transformer.encoder.1.feedforward_norm:call:instance:model.Transformer.encoder.1.feedforward_norm:out:output:memory" data-node-id="repeat:instance:model.Transformer.encoder" cx="274" cy="444.1" r="2.6" fill="#94a6ba"><title>output · projected boundary port</title></circle><circle data-port-id="call:instance:model.Transformer.target_embedding:call:instance:model.Transformer.target_embedding:in:input:data" data-node-id="call:instance:model.Transformer.target_embedding" cx="413" cy="310" r="2.6" fill="#7e95b5"><title>input</title></circle><circle data-port-id="call:instance:model.Transformer.target_embedding:call:instance:model.Transformer.target_embedding:out:output:data" data-node-id="call:instance:model.Transformer.target_embedding" cx="380.67" cy="372" r="2.6" fill="#7e95b5"><title>output</title></circle><circle data-port-id="call:instance:model.Transformer.target_embedding:call:instance:model.Transformer.target_embedding:out:output:residual" data-node-id="call:instance:model.Transformer.target_embedding" cx="445.33" cy="372" r="2.6" fill="#7e95b5"><title>output</title></circle><circle data-port-id="call:instance:model.Transformer.decoder:call:instance:model.Transformer.decoder:in:x:data" data-node-id="call:instance:model.Transformer.decoder" cx="348.33" cy="410" r="2.6" fill="#94a6ba"><title>x</title></circle><circle data-port-id="call:instance:model.Transformer.decoder:call:instance:model.Transformer.decoder:in:memory:memory" data-node-id="call:instance:model.Transformer.decoder" cx="316" cy="444.1" r="2.6" fill="#94a6ba"><title>memory</title></circle><circle data-port-id="call:instance:model.Transformer.decoder:call:instance:model.Transformer.decoder:in:target_mask:mask" data-node-id="call:instance:model.Transformer.decoder" cx="413" cy="410" r="2.6" fill="#94a6ba"><title>target_mask</title></circle><circle data-port-id="call:instance:model.Transformer.decoder:call:instance:model.Transformer.decoder:in:memory_mask:mask" data-node-id="call:instance:model.Transformer.decoder" cx="445.33" cy="410" r="2.6" fill="#94a6ba"><title>memory_mask</title></circle><circle data-port-id="op:call:instance:model.Transformer.decoder:Add:5e52cf2b46:op:call:instance:model.Transformer.decoder:Add:5e52cf2b46:in:left:residual" data-node-id="call:instance:model.Transformer.decoder" cx="477.67" cy="410" r="2.6" fill="#94a6ba"><title>left · projected boundary port</title></circle><circle data-port-id="call:instance:model.Transformer.decoder.feedforward_norm:call:instance:model.Transformer.decoder.feedforward_norm:out:output:data" data-node-id="call:instance:model.Transformer.decoder" cx="413" cy="472" r="2.6" fill="#94a6ba"><title>output · projected boundary port</title></circle><circle data-port-id="call:instance:model.Transformer.output_projection:call:instance:model.Transformer.output_projection:in:input:data" data-node-id="call:instance:model.Transformer.output_projection" cx="413" cy="510" r="2.6" fill="#82a897"><title>input</title></circle><circle data-port-id="call:instance:model.Transformer.output_projection:call:instance:model.Transformer.output_projection:out:output:data" data-node-id="call:instance:model.Transformer.output_projection" cx="413" cy="572" r="2.6" fill="#82a897"><title>output</title></circle><circle data-port-id="output:model.Transformer:0:output:model.Transformer:0:in:value:data" data-node-id="output:model.Transformer:0" cx="413" cy="610" r="2.6" fill="#98a6b1"><title>value</title></circle><g data-legend-id="legend:input"><rect x="50" y="743" width="19" height="15" rx="4" fill="#eef2f5" stroke="#a0adbb"/><g transform="translate(59.5 750.5)" fill="none" stroke="#718495" stroke-width="1.4" stroke-linecap="round"><rect x="-8" y="-6" width="16" height="12" rx="1"/><path d="M-3-6V6M3-6V6M-8 0H8" opacity=".6"/></g><text x="79" y="754" fill="#768697" font-size="10">Input</text></g><g data-legend-id="legend:container"><rect x="235" y="743" width="19" height="15" rx="4" fill="#f5f8fc" stroke="#a0adbb"/><g transform="translate(244.5 750.5)" fill="none" stroke="#718495" stroke-width="1.4" stroke-linecap="round"><rect x="-7" y="-7" width="14" height="14" rx="3"/><path d="M-3-7V7M3-7V7" opacity=".45"/></g><text x="264" y="754" fill="#768697" font-size="10">Container</text></g><g data-legend-id="legend:attention"><rect x="420" y="743" width="19" height="15" rx="4" fill="#e5eafb" stroke="#a0adbb"/><g transform="translate(429.5 750.5)" fill="none" stroke="#718495" stroke-width="1.4" stroke-linecap="round"><path d="M-8-5H8M-8 0H8M-8 5H8M-5-7L5 7M5-7L-5 7"/></g><text x="449" y="754" fill="#768697" font-size="10">Attention</text></g><g data-legend-id="legend:residual"><rect x="50" y="770" width="19" height="15" rx="4" fill="#f4eddf" stroke="#a0adbb"/><g transform="translate(59.5 777.5)" fill="none" stroke="#718495" stroke-width="1.4" stroke-linecap="round"><circle r="8"/><path d="M-4 0H4M0-4V4"/></g><text x="79" y="781" fill="#768697" font-size="10">Residual</text></g><g data-legend-id="legend:norm"><rect x="235" y="770" width="19" height="15" rx="4" fill="#f5e7ef" stroke="#a0adbb"/><g transform="translate(244.5 777.5)" fill="none" stroke="#718495" stroke-width="1.4" stroke-linecap="round"><path d="M-7-6H7M-7 0H7M-7 6H7M-2-8V8"/></g><text x="264" y="781" fill="#768697" font-size="10">Norm</text></g><g data-legend-id="legend:linear"><rect x="420" y="770" width="19" height="15" rx="4" fill="#e5f1ed" stroke="#a0adbb"/><g transform="translate(429.5 777.5)" fill="none" stroke="#718495" stroke-width="1.4" stroke-linecap="round"><rect x="-7" y="-7" width="14" height="14" rx="3"/><path d="M-3 0H3M0-3V3"/></g><text x="449" y="781" fill="#768697" font-size="10">Linear</text></g></g></svg>